<svg xmlns="http://www.w3.org/2000/svg" xmlns:xlink="http://www.w3.org/1999/xlink" viewBox="0 0 1918 747">
  <defs>
    <style>
      .cls-1 {
        fill: #948068;
      }

      .cls-11, .cls-2, .cls-5 {
        fill: #91fbff;
      }

      .cls-2, .cls-3, .cls-4 {
        stroke-linecap: round;
      }

      .cls-12, .cls-3, .cls-4 {
        fill: none;
      }

      .cls-3 {
        stroke: #91fbff;
      }

      .cls-3, .cls-4 {
        stroke-width: 10px;
      }

      .cls-4 {
        stroke: #9ff59a;
      }

      .cls-6 {
        fill: #fff;
        stroke: #707070;
      }

      .cls-7 {
        font-size: 35px;
        font-family: SegoeUI-Bold, Segoe UI;
        font-weight: 700;
      }

      .cls-8 {
        font-size: 25px;
        font-family: SegoeUI, Segoe UI;
      }

      .cls-10, .cls-11, .cls-9 {
        stroke: none;
      }

      .cls-10 {
        fill: #707070;
      }

      .cls-13 {
        filter: url(#Path_4);
      }

      .cls-14 {
        filter: url(#Path_3);
      }
    </style>
    <filter id="Path_3" x="0" y="0.314" width="710" height="746.686" filterUnits="userSpaceOnUse">
      <feOffset dx="-5" dy="3" input="SourceAlpha"/>
      <feGaussianBlur stdDeviation="49.5" result="blur"/>
      <feFlood flood-opacity="0.161"/>
      <feComposite operator="in" in2="blur"/>
      <feComposite in="SourceGraphic"/>
    </filter>
    <filter id="Path_4" x="1208" y="0" width="710" height="746.08" filterUnits="userSpaceOnUse">
      <feOffset dx="5" dy="3" input="SourceAlpha"/>
      <feGaussianBlur stdDeviation="49.5" result="blur-2"/>
      <feFlood flood-opacity="0.161"/>
      <feComposite operator="in" in2="blur-2"/>
      <feComposite in="SourceGraphic"/>
    </filter>
  </defs>
  <g id="com_svg" transform="translate(-1.5 -239.5)">
    <g id="com_left">
      <g class="cls-14" transform="matrix(1, 0, 0, 1, 1.5, 239.5)">
        <g id="Path_3-2" data-name="Path 3" class="cls-1" transform="translate(153.5 200.81)">
          <path class="cls-9" d="M 0.4999847412109375 394.1072692871094 L 0.4999847412109375 6.349780082702637 L 412.5 -54.42082977294922 L 412.5 333.3366394042969 L 0.4999847412109375 394.1072692871094 Z"/>
          <path class="cls-10" d="M 412 -53.84170532226563 L 0.999969482421875 6.781402587890625 L 0.999969482421875 393.5281372070313 L 412 332.905029296875 L 412 -53.84170532226563 M 413 -55 L 413 333.7683410644531 L -3.0517578125e-05 394.6864318847656 L -3.0517578125e-05 5.9180908203125 L 413 -55 Z"/>
        </g>
      </g>
      <g id="Path_5" data-name="Path 5" class="cls-2" transform="translate(186 645.202)">
        <path class="cls-9" d="M -0.9999886751174927 96.95401763916016 L -0.9999886751174927 95.79789733886719 L -0.9999886751174927 -34.57172012329102 L -0.9999886751174927 -35.43667984008789 L -0.1440486758947372 -35.56129837036133 L 140.1886444091797 -55.98957824707031 L 141.3327178955078 -56.15612030029297 L 141.3327178955078 -55 L 141.3327178955078 75.36959838867188 L 141.3327178955078 76.23455810546875 L 140.4767761230469 76.35918426513672 L 0.1440713256597519 96.78748321533203 L -0.9999886751174927 96.95401763916016 Z"/>
        <path class="cls-11" d="M 140.3327026367188 -55.00000762939453 L 0 -34.57171630859375 L 0 95.79788208007813 L 140.3327026367188 75.36959838867188 L 140.3327026367188 -55.00000762939453 M 142.3327026367188 -57.31224060058594 L 142.3327026367188 -55.00000762939453 L 142.3327026367188 75.36959838867188 L 142.3327026367188 77.09953308105469 L 140.6208038330078 77.34873962402344 L 0.2881011962890625 97.77703094482422 L -2 98.11011505126953 L -2 95.79788208007813 L -2 -34.57171630859375 L -2 -36.30165863037109 L -0.2881011962890625 -36.55086517333984 L 140.0446014404297 -56.97915649414063 L 142.3327026367188 -57.31224060058594 Z"/>
      </g>
      <line id="Line_2" data-name="Line 2" class="cls-3" y1="11" x2="75" transform="translate(185.5 497.5)"/>
      <line id="Line_1" data-name="Line 1" class="cls-4" y1="52" x2="353" transform="translate(185.5 429.5)"/>
      <line id="Line_3" data-name="Line 3" class="cls-3" y1="19" x2="125" transform="translate(185.5 508.5)"/>
    </g>
    <g id="com_right">
      <g class="cls-13" transform="matrix(1, 0, 0, 1, 1.5, 239.5)">
        <g id="Path_4-2" data-name="Path 4" class="cls-1" transform="translate(1351.5 249.81)">
          <path class="cls-9" d="M 412.5 344.2018127441406 L 0.4999847412109375 294.009521484375 L 0.4999847412109375 -103.7486801147461 L 412.5 -53.3194694519043 L 412.5 344.2018127441406 Z"/>
          <path class="cls-10" d="M 0.999969482421875 -103.1837158203125 L 0.999969482421875 293.5667114257813 L 412 343.6371765136719 L 412 -52.87689208984375 L 0.999969482421875 -103.1837158203125 M -3.0517578125e-05 -104.3135986328125 L 413 -53.76199340820313 L 413 344.7664184570313 L -3.0517578125e-05 294.4523010253906 L -3.0517578125e-05 -104.3135986328125 Z"/>
        </g>
      </g>
      <line id="Line_4" data-name="Line 4" class="cls-4" x1="164" y1="20" transform="translate(1559.5 446)"/>
      <line id="Line_5" data-name="Line 5" class="cls-4" x1="261" y1="31.5" transform="translate(1462.5 471.5)"/>
      <line id="Line_6" data-name="Line 6" class="cls-4" x1="261" y1="31.5" transform="translate(1462.5 508.5)"/>
      <g id="Path_6" data-name="Path 6" class="cls-5" transform="translate(1566 737.329)">
        <path class="cls-9" d="M 61.567138671875 -36.03259658813477 L 0.4999974370002747 -43.62182235717773 L 0.4999974370002747 -103.7472686767578 L 61.567138671875 -96.12223052978516 L 61.567138671875 -36.03259658813477 Z"/>
        <path class="cls-11" d="M 0.9999961853027344 -103.1809616088867 L 0.9999961853027344 -44.06353759765625 L 61.067138671875 -36.59860229492188 L 61.067138671875 -95.6807861328125 L 0.9999961853027344 -103.1809616088867 M -3.814697265625e-06 -104.3135833740234 L 62.067138671875 -96.56369018554688 L 62.067138671875 -35.46662902832031 L -3.814697265625e-06 -43.18011474609375 L -3.814697265625e-06 -104.3135833740234 Z"/>
      </g>
      <g id="Path_6-2" data-name="Path 6" class="cls-5" transform="translate(1483 726.329)">
        <path class="cls-9" d="M 61.567138671875 -36.03259658813477 L 0.4999974370002747 -43.62182235717773 L 0.4999974370002747 -103.7472686767578 L 61.567138671875 -96.12223052978516 L 61.567138671875 -36.03259658813477 Z"/>
        <path class="cls-11" d="M 0.9999961853027344 -103.1809616088867 L 0.9999961853027344 -44.06353759765625 L 61.067138671875 -36.59860229492188 L 61.067138671875 -95.6807861328125 L 0.9999961853027344 -103.1809616088867 M -3.814697265625e-06 -104.3135833740234 L 62.067138671875 -96.56369018554688 L 62.067138671875 -35.46662902832031 L -3.814697265625e-06 -43.18011474609375 L -3.814697265625e-06 -104.3135833740234 Z"/>
      </g>
      <g id="Path_6-3" data-name="Path 6" class="cls-5" transform="translate(1649 749.329)">
        <path class="cls-9" d="M 61.567138671875 -36.03259658813477 L 0.4999974370002747 -43.62182235717773 L 0.4999974370002747 -103.7472686767578 L 61.567138671875 -96.12223052978516 L 61.567138671875 -36.03259658813477 Z"/>
        <path class="cls-11" d="M 0.9999961853027344 -103.1809616088867 L 0.9999961853027344 -44.06353759765625 L 61.067138671875 -36.59860229492188 L 61.067138671875 -95.6807861328125 L 0.9999961853027344 -103.1809616088867 M -3.814697265625e-06 -104.3135833740234 L 62.067138671875 -96.56369018554688 L 62.067138671875 -35.46662902832031 L -3.814697265625e-06 -43.18011474609375 L -3.814697265625e-06 -104.3135833740234 Z"/>
      </g>
      <g id="Path_6-4" data-name="Path 6" class="cls-5" transform="translate(1400 715.329)">
        <path class="cls-9" d="M 61.567138671875 -36.03259658813477 L 0.4999974370002747 -43.62182235717773 L 0.4999974370002747 -103.7472686767578 L 61.567138671875 -96.12223052978516 L 61.567138671875 -36.03259658813477 Z"/>
        <path class="cls-11" d="M 0.9999961853027344 -103.1809616088867 L 0.9999961853027344 -44.06353759765625 L 61.067138671875 -36.59860229492188 L 61.067138671875 -95.6807861328125 L 0.9999961853027344 -103.1809616088867 M -3.814697265625e-06 -104.3135833740234 L 62.067138671875 -96.56369018554688 L 62.067138671875 -35.46662902832031 L -3.814697265625e-06 -43.18011474609375 L -3.814697265625e-06 -104.3135833740234 Z"/>
      </g>
    </g>
    <g id="com">
      <g id="Rectangle_2" data-name="Rectangle 2" class="cls-6" transform="translate(621 386)">
        <rect class="cls-9" width="679" height="392"/>
        <rect class="cls-12" x="0.5" y="0.5" width="678" height="391"/>
      </g>
      <text id="Simple_yet_complex_websites_" data-name="Simple yet complex websites
" class="cls-7" transform="translate(649 447)"><tspan x="0" y="0">Simple yet complex websites</tspan><tspan x="0" y="47"></tspan></text>
      <text id="Front_End_services_include:_-_Step_1:_Prototyping_with_Adobe_XD_-_Step_2:_Creating_the_webpage_structure_with_html_and_css_-_Step_3:_Animations_with_css_and_JavaScript_JQuery_Each_step_will_be_reviewed_and_approved_by_the_client_as_we_advance_through_th" data-name="Front End services include:
- Step 1: Prototyping with Adobe XD
- Step 2: Creating the webpage structure with html and css
- Step 3: Animations with css and JavaScript (JQuery)

Each step will be reviewed and approved by the client as
we advance through th" class="cls-8" transform="translate(649 521)"><tspan x="0" y="0">Front End services include:</tspan><tspan x="0" y="33">- Step 1: Prototyping with Adobe XD</tspan><tspan x="0" y="66">- Step 2: Creating the webpage structure with html and css</tspan><tspan x="0" y="99">- Step 3: Animations with css and JavaScript (JQuery)</tspan><tspan x="0" y="132"></tspan><tspan x="0" y="165">Each step will be reviewed and approved by the client as</tspan><tspan x="0" y="198">we advance through the project.</tspan></text>
    </g>
  </g>
</svg>
